HIERARCHY
ROOT Hips
{
	OFFSET	0.00	0.00	0.00
	CHANNELS 6 Xposition Yposition Zposition Zrotation Xrotation Yrotation
	JOINT LeftUpLeg
	{
		OFFSET	 0.126116	-0.014019	-0.065224
		CHANNELS 3 Zrotation Xrotation Yrotation
		JOINT LeftLeg
		{
			OFFSET	 0.000000	 0.000000	 0.569914
			CHANNELS 3 Zrotation Xrotation Yrotation
			JOINT LeftFoot
			{
				OFFSET	 0.000000	 0.000000	 0.544423
				CHANNELS 3 Zrotation Xrotation Yrotation
				JOINT LeftToeBase
				{
					OFFSET	 0.000000	 0.000000	 0.207117
					CHANNELS 3 Zrotation Xrotation Yrotation
					End Site
					{
						OFFSET	 0.000000	 0.000000	 0.207117
					}
				}
			}
		}
	}
	JOINT RightUpLeg
	{
		OFFSET	-0.124023	-0.008373	-0.065224
		CHANNELS 3 Zrotation Xrotation Yrotation
		JOINT RightLeg
		{
			OFFSET	 0.000000	 0.000000	 0.570047
			CHANNELS 3 Zrotation Xrotation Yrotation
			JOINT RightFoot
			{
				OFFSET	 0.000000	 0.000000	 0.544354
				CHANNELS 3 Zrotation Xrotation Yrotation
				JOINT RightToeBase
				{
					OFFSET	 0.000000	 0.000000	 0.207540
					CHANNELS 3 Zrotation Xrotation Yrotation
					End Site
					{
						OFFSET	 0.000000	 0.000000	 0.207540
					}
				}
			}
		}
	}
	JOINT Spine
	{
		OFFSET	 0.000184	-0.007763	 0.117403
		CHANNELS 3 Zrotation Xrotation Yrotation
		JOINT Spine1
		{
			OFFSET	 0.000000	 0.000000	 0.137269
			CHANNELS 3 Zrotation Xrotation Yrotation
			JOINT Spine2
			{
				OFFSET	 0.000000	 0.000000	 0.156879
				CHANNELS 3 Zrotation Xrotation Yrotation
				JOINT LeftShoulder
				{
					OFFSET	 0.080501	-0.002496	 0.160144
					CHANNELS 3 Zrotation Xrotation Yrotation
					JOINT LeftArm
					{
						OFFSET	 0.000000	 0.000000	 0.164363
						CHANNELS 3 Zrotation Xrotation Yrotation
						JOINT LeftForeArm
						{
							OFFSET	 0.000000	 0.000000	 0.364576
							CHANNELS 3 Zrotation Xrotation Yrotation
							JOINT LeftHand
							{
								OFFSET	 0.000000	 0.000000	 0.360812
								CHANNELS 3 Zrotation Xrotation Yrotation
								JOINT LeftHandIndex1
								{
									OFFSET	 0.000000	 0.000000	 0.086006
									CHANNELS 3 Zrotation Xrotation Yrotation
									JOINT LeftHandIndex2
									{
										OFFSET	 0.000000	 0.000000	 0.047236
										CHANNELS 3 Zrotation Xrotation Yrotation
										JOINT LeftHandIndex3
										{
											OFFSET	-0.004284	-0.000551	 0.038166
											CHANNELS 3 Zrotation Xrotation Yrotation
											End Site
											{
												OFFSET	-0.004284	-0.000551	 0.038166
											}
										}
									}
								}
							}
						}
					}
				}
				JOINT Neck
				{
					OFFSET	 0.000000	 0.000000	 0.176489
					CHANNELS 3 Zrotation Xrotation Yrotation
					JOINT Head
					{
						OFFSET	 0.000000	-0.001747	 0.077940
						CHANNELS 3 Zrotation Xrotation Yrotation
						End Site
						{
							OFFSET	 0.000000	-0.001747	 0.077940
						}
					}
				}
				JOINT RightShoulder
				{
					OFFSET	-0.080363	 0.000306	 0.159706
					CHANNELS 3 Zrotation Xrotation Yrotation
					JOINT RightArm
					{
						OFFSET	 0.000000	 0.000000	 0.164196
						CHANNELS 3 Zrotation Xrotation Yrotation
						JOINT RightForeArm
						{
							OFFSET	 0.000000	 0.000000	 0.365611
							CHANNELS 3 Zrotation Xrotation Yrotation
							JOINT RightHand
							{
								OFFSET	 0.000000	 0.000000	 0.360648
								CHANNELS 3 Zrotation Xrotation Yrotation
								JOINT RightHandIndex1
								{
									OFFSET	 0.000000	 0.000000	 0.069977
									CHANNELS 3 Zrotation Xrotation Yrotation
									JOINT RightHandIndex2
									{
										OFFSET	 0.000000	 0.000000	 0.052305
										CHANNELS 3 Zrotation Xrotation Yrotation
										JOINT RightHandIndex3
										{
											OFFSET	 0.009002	-0.000782	 0.042196
											CHANNELS 3 Zrotation Xrotation Yrotation
											End Site
											{
												OFFSET	 0.009002	-0.000782	 0.042196
											}
										}
									}
								}
							}
						}
					}
				}
			}
		}
	}
}
MOTION
Frames:    8
Frame Time: 0.03333334
-2.888411	-18.263720	 1.113043	-17.194120	 17.456250	 3.764718	 3.558679	-34.847350	 175.424000	-1.437271	-43.064690	-0.391170	-0.778953	 80.995340	 0.480208	-2.353223	 34.042400	-0.126058	-0.743619	-36.005940	-179.484000	-2.943863	-43.001400	-0.934698	-1.604750	 81.321820	 0.543164	 2.406615	 19.903320	-0.175018	-0.701534	 15.223900	 1.571180	-1.650631	 2.172205	-1.826207	-2.673360	-3.582780	-0.259895	-125.553500	 89.278820	-142.010400	 55.859660	 66.186560	-61.796280	-10.175440	-1.438187	-21.128670	-2.395047	-10.293410	-5.458734	-5.617908	-12.165480	-1.228803	-5.213516	-0.193813	 3.566525	-1.378229	 35.397820	-2.634230	 0.800199	 0.103392	-3.793330	-0.623227	-6.809275	 1.231951	 93.698360	 85.952870	 172.022200	-60.905800	 75.224910	 70.115100	-2.674505	-14.644550	 28.876270	-23.316250	-11.197310	 9.758729	-9.832962	-9.854553	-38.836520	 5.070815	-0.697434	-9.399699	-2.350882	 35.473990	 5.254307
-2.890064	-18.277830	 1.113485	-17.091370	 18.093180	 3.800144	 3.593160	-34.961830	 175.573400	-1.960948	-43.204860	-0.735305	-0.980575	 81.681810	 0.268509	-2.351779	 34.238240	-0.130685	-0.768967	-35.717830	-179.411600	-2.618951	-42.568140	-0.733271	-1.558971	 82.422360	 0.787333	 2.405632	 20.827060	-0.156638	 0.029850	 14.861290	 1.271477	-0.591178	 1.776037	-1.936285	-1.519718	-4.035387	-0.153681	-123.885600	 89.239980	-143.633500	 59.947110	 67.296410	-63.229330	-9.056987	-1.601669	-19.612200	-2.079575	-13.083320	-5.510680	-5.210711	-11.770390	-0.313253	-5.213516	-0.193813	 3.566525	-1.378229	 35.397820	-2.634230	 0.737396	-0.130857	-3.620702	-0.415091	-7.296432	 1.240949	 93.667080	 85.989610	 172.141100	-55.021690	 77.658130	 62.173510	-3.868451	-13.172510	 23.473480	-24.667030	-13.933570	 9.847146	-9.343860	-8.872590	-38.390930	 5.070815	-0.697434	-9.399699	-2.350882	 35.473990	 5.254307
-2.891573	-18.288940	 1.113554	-17.238980	 18.515830	 3.848424	 3.550506	-34.979870	 175.626500	-2.073913	-43.509160	-0.850774	-1.059392	 82.187160	 0.209125	-2.345096	 35.103050	-0.151357	-0.742613	-35.405090	-179.473800	-2.362313	-42.313690	-0.546008	-1.471418	 83.046020	 0.947129	 2.404898	 21.370890	-0.145753	 0.762168	 14.589930	 1.097164	 0.432000	 1.401427	-1.935733	-0.446893	-4.441385	-0.046759	-120.775200	 89.159070	-146.668700	 62.846290	 68.058780	-64.208180	-8.089784	-1.750748	-18.537930	-1.764897	-15.711210	-5.571639	-4.599742	-11.190800	 1.084446	-5.213516	-0.193813	 3.566525	-1.378229	 35.397820	-2.634230	 0.752893	-0.395883	-3.460493	-0.221792	-7.715320	 1.168554	 93.695110	 86.071550	 172.206800	-47.311630	 79.325950	 52.692680	-4.491495	-12.377620	 20.608140	-25.579750	-16.526640	 9.938570	-8.994780	-8.114498	-38.104530	 5.070815	-0.697434	-9.399699	-2.350882	 35.473990	 5.254307
-2.892987	-18.299690	 1.114005	-17.570200	 18.897940	 3.938481	 3.554926	-34.876240	 175.669900	-2.160125	-43.712790	-0.919479	-1.116816	 82.499470	 0.186855	-2.337750	 35.992770	-0.172988	-0.732253	-35.285170	-179.580900	-2.330421	-42.181000	-0.518365	-1.471345	 83.330560	 0.996212	 2.404649	 21.541780	-0.142325	 1.561096	 14.340260	 0.848557	 1.587170	 1.062829	-1.802893	 0.810821	-4.796091	 0.087331	-115.672500	 89.001820	-151.733100	 65.045520	 68.889960	-64.703960	-7.539253	-1.828285	-17.621190	-1.696199	-18.764830	-5.660994	-4.105683	-10.663240	 2.234656	-5.213516	-0.193813	 3.566525	-1.378229	 35.397820	-2.634230	 0.838533	-0.537871	-3.273467	 0.051151	-8.182447	 1.319981	 93.940190	 86.287900	 172.050200	-38.231370	 80.400380	 42.023540	-4.681451	-11.693950	 18.676720	-25.848120	-19.543090	 10.082580	-8.774653	-7.599860	-37.946440	 5.070815	-0.697434	-9.399699	-2.350882	 35.473990	 5.254307
-2.893957	-18.308290	 1.115351	-17.893550	 19.258680	 3.944276	 3.574941	-34.793720	 175.739600	-2.361953	-43.625200	-1.046468	-1.187211	 82.474260	 0.117097	-2.331884	 36.662890	-0.189536	-0.792430	-35.363840	-179.485900	-2.499307	-42.126880	-0.668454	-1.588752	 83.376910	 0.948848	 2.404593	 21.582580	-0.141511	 2.211750	 14.112500	 0.641334	 2.604881	 0.864494	-1.615895	 2.012471	-4.990204	 0.220157	-110.858700	 88.795520	-156.569600	 66.389060	 69.498760	-64.990320	-7.359762	-1.846412	-16.986850	-1.839683	-21.683680	-5.766306	-3.951862	-10.689770	 2.598155	-5.213516	-0.193813	 3.566525	-1.378229	 35.397820	-2.634230	 0.910523	-0.626731	-3.019171	 0.378921	-8.449001	 1.556802	 94.322120	 86.521830	 171.690600	-31.473630	 80.760310	 34.088230	-4.814686	-11.318020	 17.725360	-25.680010	-22.424170	 10.261350	-8.702777	-7.580636	-37.788620	 5.070815	-0.697434	-9.399699	-2.350882	 35.473990	 5.254307
-2.895118	-18.315840	 1.117006	-18.218150	 19.591100	 3.899252	 3.573988	-34.777690	 175.774100	-2.598202	-43.456080	-1.202861	-1.257663	 82.296150	 0.017517	-2.326798	 37.217810	-0.203416	-0.858711	-35.374660	-179.345700	-2.690355	-42.052850	-0.837230	-1.726511	 83.404530	 0.899417	 2.404512	 21.631860	-0.140516	 2.828257	 13.935560	 0.534057	 3.601308	 0.759683	-1.454235	 3.223799	-5.071601	 0.354999	-108.362100	 88.651430	-159.098100	 67.239640	 69.872680	-65.297830	-6.763715	-2.007622	-16.441100	-1.505784	-24.692330	-5.890613	-3.845191	-10.921180	 2.850323	-5.213516	-0.193813	 3.566525	-1.378229	 35.397820	-2.634230	 0.965275	-0.775303	-2.759826	 0.734441	-8.497108	 1.813486	 94.709810	 86.710330	 171.289400	-26.699270	 80.806250	 28.418520	-5.068204	-11.211650	 17.300900	-25.426500	-25.387600	 10.489270	-8.644403	-7.641827	-37.606120	 5.070815	-0.697434	-9.399699	-2.350882	 35.473990	 5.254307
-2.896646	-18.322640	 1.118414	-18.462670	 19.804660	 3.880236	 3.572959	-34.472370	 175.791600	-2.705076	-43.256750	-1.273355	-1.302479	 82.188350	-0.022462	-2.322845	 37.634620	-0.213947	-0.819576	-35.336820	-179.260300	-2.908685	-41.878570	-0.964678	-1.826121	 83.382780	 0.853622	 2.404618	 21.566140	-0.141836	 3.402214	 13.750540	 0.451577	 4.539204	 0.703406	-1.357252	 4.365717	-5.091440	 0.481599	-107.215500	 88.584050	-160.304600	 67.546460	 70.039090	-65.429270	-6.273053	-2.149003	-16.151530	-1.275457	-27.629580	-6.034671	-4.032926	-11.037270	 2.409863	-5.213516	-0.193813	 3.566525	-1.378229	 35.397820	-2.634230	 1.017188	-0.802682	-2.565615	 1.061154	-8.586491	 1.941524	 94.876180	 86.800710	 171.143200	-23.739520	 80.691620	 24.802870	-5.219281	-11.228580	 17.249840	-24.933830	-28.281410	 10.761590	-8.588832	-7.714939	-37.422210	 5.070815	-0.697434	-9.399699	-2.350882	 35.473990	 5.254307
-2.898913	-18.329240	 1.119699	-18.527450	 19.960200	 3.852709	 3.566487	-34.243140	 175.807100	-2.647851	-43.044670	-1.231969	-1.317519	 82.225220	 0.020475	-2.319373	 37.990950	-0.223028	-0.728606	-34.969810	-179.228500	-2.963192	-41.479300	-0.952132	-1.803563	 83.511030	 0.849643	 2.404899	 21.373020	-0.145715	 3.941933	 13.488540	 0.378375	 5.474229	 0.673571	-1.314140	 5.545829	-5.068906	 0.610878	-106.832200	 88.576740	-160.765000	 67.268040	 70.047440	-65.170080	-6.503348	-2.103344	-16.320990	-1.865793	-30.753110	-6.225116	-4.146629	-11.126670	 2.144180	-5.213516	-0.193813	 3.566525	-1.378229	 35.397820	-2.634230	 1.062645	-0.765597	-2.536656	 1.420607	-8.695528	 2.154905	 94.910290	 86.827930	 171.128200	-22.274370	 80.491780	 22.895670	-5.223548	-11.254060	 17.388010	-24.110090	-31.371910	 11.107290	-8.536907	-7.799287	-37.239530	 5.070815	-0.697434	-9.399699	-2.350882	 35.473990	 5.254307
